<svg width="1512" height="295" viewBox="0 0 1512 295" fill="none" xmlns="http://www.w3.org/2000/svg">
<path d="M-1693.88 252.626C-1526.98 252.626 -1376.61 80.5284 -1190.28 80.6215C-1056.7 80.6914 -925.877 130.095 -792.508 122.412C-584.818 110.469 -387.599 -38.3707 -185.505 10.8466C1.36003 56.3388 135.195 262.451 327.424 255.559C482.037 249.995 606.847 103.6 761.531 105.696C892.334 107.465 1006.28 216.377 1136.82 207.949C1296.43 197.635 1419.75 15.3167 1577.37 42.4863C1676.5 59.575 1745.51 156.147 1843.1 180.5C1933.89 203.129 2023.53 143.226 2116.88 136.823C2240.94 128.326 2289.08 252.649 2403.93 252.649M-1693.88 241.753C-1600.93 240.426 -1514.29 200.545 -1422.41 157.241C-1346.08 121.504 -1268.29 85.1614 -1183.59 81.9486C-1094.86 78.5495 -1007.29 95.3588 -918.368 108.117C-872.707 114.706 -827.302 119.851 -781.664 118.966C-692.721 117.127 -605.596 92.6581 -517.283 65.279C-400.122 28.9364 -286.482 -13.4827 -166.872 13.3843C21.8118 55.7335 155.344 260.821 344.564 257.119C368.025 256.747 390.855 253.092 413.266 247.085C538.962 213.746 647.681 110.515 776.176 107.232C884.125 104.485 980.555 172.002 1086.2 191.884C1106.74 195.772 1127.54 197.775 1148.74 196.936C1307.15 190.65 1430.24 28.6105 1587.91 50.2623C1645.84 58.3411 1693.08 90.749 1742.96 122.645C1777.78 144.902 1812.95 166.973 1852.69 177.683C1879.55 184.9 1906.35 185.156 1933.23 181.594C1996.22 173.352 2059.96 143.738 2124.81 138.43C2244.86 128.605 2292.37 242.405 2403.91 241.753M-1693.88 230.881C-1599.39 228.227 -1512.66 199.893 -1418.94 160.175C-1340.79 127.068 -1262.02 89.7246 -1176.87 83.2989C-1087.6 76.4541 -999.406 88.5373 -908.876 101.645C-862.516 108.443 -816.738 114.729 -770.774 115.567C-681.434 116.964 -593.866 98.0129 -503.174 72.1703C-384.474 38.3189 -271.51 -9.50152 -148.169 15.9453C42.2872 55.2446 175.562 257.306 361.775 258.702C385.095 258.889 407.832 255.583 430.243 250.018C557.059 218.449 664.985 117.104 790.868 108.839C897.371 101.831 992.588 160.477 1098.48 180.174C1118.96 184.015 1139.65 186.273 1160.7 185.971C1317.91 183.736 1440.78 41.9508 1598.49 58.0849C1655.93 64.1614 1702.48 91.3311 1752.76 120.899C1787.88 141.526 1822.95 163.481 1862.29 174.889C1888.83 182.525 1915.28 183.689 1941.93 180.965C2004.48 174.702 2068.4 146.206 2132.79 140.059C2248.83 128.977 2295.7 232.208 2403.95 230.881M-1693.88 220.008C-1597.85 216.027 -1510.98 199.358 -1415.46 163.108C-1335.43 132.726 -1255.77 94.3111 -1170.18 84.626C-1080.35 74.3355 -991.547 81.7158 -899.408 95.1492C-852.325 102.134 -806.221 109.584 -759.93 112.145C-670.194 116.778 -582.183 103.344 -489.135 79.0384C-368.896 47.6548 -256.632 -5.52037 -129.56 18.483C62.669 54.8022 195.711 256.7 378.915 260.286C402.119 260.728 424.763 258.12 447.15 252.929C575.132 223.338 682.265 123.623 805.466 110.399C910.57 99.1071 1004.53 148.883 1110.68 168.44C1131.11 172.258 1151.68 174.749 1172.55 175.005C1328.52 176.821 1451.25 54.9187 1608.99 65.9076C1665.96 69.8654 1711.78 91.9364 1762.46 119.176C1797.88 138.174 1832.84 160.012 1871.79 172.118C1897.97 180.174 1924.09 182.246 1950.51 180.337C2012.64 176.053 2076.72 148.72 2140.62 141.689C2252.65 129.373 2298.9 221.987 2403.84 220.008M-1693.88 209.159C-1596.31 203.851 -1509.26 198.869 -1411.99 166.065C-1330.06 138.43 -1249.49 98.8976 -1163.46 85.9763C-1073.07 72.2402 -983.665 74.8943 -889.917 88.6537C-842.134 95.8244 -795.657 104.532 -749.063 108.699C-658.953 116.778 -570.499 108.606 -475.05 85.9064C-353.294 56.9441 -241.707 -1.49265 -110.88 21.0439C83.0743 54.4297 215.93 254.884 396.102 261.892C419.166 262.8 441.74 260.658 464.127 255.862C593.275 228.25 699.615 130.141 820.134 111.982C923.84 96.3832 1016.54 137.336 1122.95 156.706C1143.31 160.477 1163.78 163.225 1184.49 164.016C1339.24 169.883 1461.74 68.2124 1619.55 73.6836C1676.03 75.6393 1721.18 92.4719 1772.25 117.406C1807.98 134.798 1842.82 156.52 1881.39 169.324C1907.23 177.799 1933.02 180.779 1959.21 179.708C2020.92 177.426 2085.19 151.258 2148.6 143.342C2256.59 129.862 2302.23 211.813 2403.88 209.159M-1693.88 198.287C-1594.77 191.651 -1507.55 198.38 -1408.51 168.998C-1324.68 144.134 -1243.22 103.484 -1156.75 87.3034C-1065.8 70.0983 -975.736 67.8632 -880.402 82.1581C-831.896 89.422 -785.093 99.3865 -738.172 105.277C-647.666 116.638 -558.816 113.868 -460.941 92.7745C-337.693 66.2102 -226.782 2.58162 -92.1775 23.5816C103.503 54.1271 236.172 253.068 413.336 263.452C436.283 264.802 458.764 263.149 481.128 258.772C611.465 233.139 716.989 136.567 834.85 113.565C937.156 93.5894 1028.59 125.765 1135.26 144.995C1155.55 148.72 1175.91 151.724 1196.48 153.074C1350.02 162.992 1472.31 80.8544 1630.16 81.5295C1686.16 81.7623 1730.6 93.0772 1782.07 115.684C1818.08 131.445 1852.8 153.12 1891.02 166.554C1916.51 175.517 1941.98 179.266 1967.93 179.079C2029.22 178.637 2093.65 153.796 2156.57 144.972C2260.53 130.398 2305.57 201.593 2403.93 198.287M-1693.88 187.414C-1593.23 179.452 -1505.83 197.914 -1405.04 171.932C-1319.29 149.838 -1236.97 108.047 -1150.05 88.6537C-1058.55 68.0029 -967.877 60.9951 -870.934 75.6626C-821.729 83.1127 -774.552 94.2645 -727.328 101.854C-636.449 116.475 -547.179 119.106 -446.902 99.6426C-322.185 75.4297 -211.927 6.67918 -73.568 26.1193C123.815 53.871 256.344 251.322 430.453 265.035C453.26 266.828 475.671 265.687 498.035 261.683C629.561 238.075 734.293 142.946 849.448 115.125C950.378 90.749 1040.58 113.938 1147.46 133.238C1167.7 136.893 1187.94 140.199 1208.35 142.062C1360.7 156.007 1482.76 95.2657 1640.68 89.3056C1696.18 87.4198 1739.96 93.6127 1791.8 113.914C1828.11 128.046 1862.71 149.605 1900.54 163.737C1925.68 173.119 1950.82 177.776 1976.54 178.428C2037.43 179.964 2101.98 156.357 2164.45 146.602C2264.41 131.003 2308.81 191.395 2403.86 187.414M-1693.88 176.542C-1591.69 167.252 -1504.08 197.449 -1401.56 174.865C-1313.9 155.565 -1230.7 112.634 -1143.34 89.9807C-1051.29 65.8843 -959.971 54.1271 -861.42 69.167C-811.514 76.7801 -763.988 89.1193 -716.414 98.432C-625.162 116.312 -535.472 124.321 -432.77 106.511C-306.561 84.626 -197.002 10.8233 -54.8418 28.6803C144.22 53.6847 276.609 249.623 447.71 266.618C470.401 268.877 492.718 268.225 515.059 264.593C647.798 243.034 751.713 149.256 864.186 116.708C963.74 87.8854 1052.66 102.343 1159.79 121.527C1179.97 125.136 1200.09 128.698 1220.36 131.119C1371.5 149.116 1493.37 108.629 1651.32 97.1282C1706.33 93.2634 1749.4 94.218 1801.66 112.191C1838.27 124.717 1872.76 146.159 1910.22 160.966C1935.03 170.791 1959.84 176.332 1985.31 177.799C2045.78 181.291 2110.49 158.941 2172.48 148.231C2268.39 131.655 2312.19 181.175 2403.95 176.518M-1693.88 165.669C-1590.15 155.053 -1502.35 197.006 -1398.09 177.799C-1308.49 161.316 -1224.42 117.197 -1136.62 91.3078C-1044.02 63.7657 -952.089 47.2357 -851.928 62.6481C-801.3 70.4475 -753.447 83.9508 -705.547 94.9863C-613.899 116.103 -523.812 129.49 -418.685 113.355C-291.006 93.7756 -182.1 14.9674 -36.1855 31.1947C164.555 53.5218 296.828 247.923 464.874 268.178C487.448 270.902 509.672 270.739 532.013 267.48C665.941 247.97 769.04 155.518 878.832 118.245C976.987 84.9286 1064.67 90.7025 1172.04 109.747C1192.14 113.309 1212.17 117.127 1232.27 120.084C1382.2 142.132 1503.86 121.9 1661.88 104.881C1716.43 99.014 1758.8 94.7302 1811.43 110.375C1848.35 121.271 1882.72 142.597 1919.8 158.126C1944.26 168.37 1968.75 174.819 1993.98 177.124C2054.03 182.618 2118.91 161.525 2180.41 149.814C2272.31 132.307 2315.5 170.931 2403.93 165.623M-1693.88 154.797C-1588.59 142.853 -1500.63 196.587 -1394.61 180.756C-1303.11 167.089 -1218.17 121.807 -1129.93 92.6814C-1036.76 61.6936 -944.23 40.3909 -842.46 56.1991C-791.132 64.1614 -742.906 78.8288 -694.703 91.6104C-602.681 115.986 -512.199 134.705 -404.646 120.293C-275.498 102.972 -167.269 19.2512 -17.5526 33.8022C184.867 53.4985 317 246.363 482.037 269.808C504.471 272.997 526.626 273.323 548.943 270.46C684.084 253.022 786.344 161.804 893.477 119.898C990.256 82.0417 1076.66 79.1548 1184.28 98.106C1204.34 101.645 1224.23 105.696 1244.17 109.211C1392.88 135.31 1514.33 135.333 1672.4 112.797C1726.45 104.951 1768.13 95.4286 1821.18 108.746C1858.4 118.012 1892.66 139.221 1929.34 155.449C1953.45 166.112 1977.61 173.469 2002.61 176.588C2062.24 184.062 2127.28 164.296 2188.31 151.561C2276.21 133.215 2318.76 160.827 2403.91 154.867M-1693.88 143.947C-1587.05 130.654 -1498.88 196.191 -1391.14 183.689C-1297.72 172.863 -1211.9 126.37 -1123.21 94.0085C-1029.49 59.575 -936.324 33.5229 -832.946 49.6803C-780.918 57.8056 -732.319 73.6603 -683.813 88.1415C-591.394 115.753 -500.539 139.803 -390.537 127.115C-259.944 112.052 -152.367 23.4419 1.15027 36.3167C205.249 53.4053 337.242 244.757 499.248 271.368C521.565 275.023 543.65 275.838 565.92 273.347C702.274 258.027 803.694 167.951 908.145 121.434C1003.5 78.9918 1088.67 67.514 1196.55 86.3255C1216.53 89.8178 1236.33 94.1249 1256.11 98.1758C1403.61 128.326 1524.94 149.093 1682.96 120.549C1736.55 110.864 1777.52 95.9408 1830.95 106.953C1868.45 114.613 1902.64 135.683 1938.92 152.608C1962.69 163.69 1986.52 171.955 2011.29 175.913C2070.5 185.389 2135.7 166.973 2196.24 153.144C2280.12 134.006 2322.05 150.583 2403.88 143.924M-1693.88 133.075C-1585.51 118.454 -1497.15 195.796 -1387.66 186.623C-1292.31 178.637 -1205.63 130.956 -1116.5 95.3355C-1022.21 57.4563 -928.442 26.6315 -823.454 43.1847C-770.704 51.4963 -721.778 68.4918 -672.945 84.7191C-580.131 115.544 -488.879 144.925 -376.452 133.983C-244.389 121.132 -137.489 27.749 19.8064 38.8544C225.584 53.4053 357.437 243.22 516.435 272.928C538.612 277.072 560.627 278.375 582.897 276.234C720.464 263.033 820.974 174.051 922.837 122.971C1016.75 75.8954 1100.72 55.8732 1208.84 74.5683C1228.75 78.014 1248.43 82.5772 1268.07 87.1869C1414.36 121.364 1535.58 162.712 1693.57 128.349C1746.72 116.778 1786.95 96.4996 1840.77 105.184C1878.57 111.214 1912.64 132.167 1948.56 149.791C1971.99 161.292 1995.48 170.465 2020.01 175.238C2078.82 186.716 2144.19 169.674 2204.24 154.727C2284.13 134.844 2325.41 140.316 2403.95 133.028M-1693.88 122.202C-1583.97 106.255 -1495.43 195.423 -1384.19 189.579C-1286.92 184.457 -1199.38 135.566 -1109.8 96.7091C-1014.96 55.3843 -920.583 19.81 -813.986 36.7124C-760.536 45.1869 -711.237 63.3699 -662.078 81.32C-568.867 115.381 -477.242 150.047 -362.389 140.898C-228.858 130.235 -122.634 32.1027 38.4626 41.4386C245.92 53.4752 377.609 241.777 533.598 274.557C555.659 279.19 577.58 280.983 599.828 279.19C738.607 268.132 838.208 180.174 937.459 124.6C1029.9 72.8455 1112.69 44.3255 1221.06 62.881C1240.93 66.2801 1260.49 71.0994 1279.96 76.2446C1425.04 114.473 1546.19 176.449 1704.09 136.171C1756.79 122.738 1796.27 97.1049 1850.52 103.461C1888.62 107.861 1922.58 128.698 1958.09 147.044C1981.18 158.964 2004.34 169.045 2028.64 174.656C2087.01 188.136 2152.58 172.514 2212.12 156.426C2288.05 135.892 2328.65 130.165 2403.88 122.202M-1693.88 111.33C-1582.44 94.055 -1493.68 195.237 -1380.72 192.513C-1281.53 190.418 -1193.1 140.129 -1103.09 98.0362C-1007.71 53.2657 -912.678 12.9187 -804.472 30.2169C-750.299 38.8776 -700.626 58.1082 -651.188 77.8976C-557.533 115.008 -465.558 155.123 -348.281 147.766C-213.28 139.268 -107.732 36.4564 57.1421 43.9996C266.278 53.5683 397.805 240.357 550.786 276.14C572.707 281.262 594.558 283.521 616.805 282.124C756.773 273.23 855.441 186.25 952.15 126.184C1043.08 69.7257 1124.72 32.7313 1233.35 51.1703C1253.15 54.5229 1272.59 59.6215 1291.93 65.3022C1435.79 107.582 1556.89 190.208 1714.7 144.017C1766.98 128.721 1805.72 97.7102 1860.33 101.738C1898.74 104.532 1932.63 125.159 1967.72 144.273C1990.51 156.566 2013.32 167.602 2037.36 174.027C2095.31 189.51 2161.1 175.378 2220.12 158.056C2292.11 136.916 2332.01 119.967 2403.95 111.33M-1693.88 100.457C-1580.9 81.8555 -1491.98 194.794 -1377.24 195.446C-1276.15 196.168 -1186.83 144.692 -1096.39 99.3632C-1000.46 51.147 -904.819 6.05058 -795.004 23.7213C-740.131 32.545 -690.086 52.963 -640.344 74.4752C-546.293 114.822 -453.945 160.198 -334.219 154.634C-197.748 148.301 -92.8771 40.8333 75.7983 46.5373C286.637 53.6614 417.953 238.936 567.973 277.724C589.754 283.358 611.535 286.082 633.759 285.034C774.94 278.329 872.582 192.257 966.795 127.767C1056.16 66.5827 1136.73 21.1371 1245.59 39.4364C1265.32 42.7657 1284.67 48.0971 1303.84 54.3133C1446.49 100.644 1567.6 203.967 1725.24 151.817C1777.1 134.658 1815.07 98.269 1870.08 99.9918C1908.79 101.156 1942.56 121.667 1977.29 141.48C1999.72 154.191 2022.18 166.181 2046.01 173.399C2103.52 190.976 2169.59 178.311 2228.03 159.686C2296.07 138.011 2335.28 109.747 2403.93 100.457M-1693.88 89.5849C-1579.36 69.6559 -1490.25 194.352 -1373.77 198.38C-1270.78 201.895 -1180.56 149.279 -1089.68 100.714C-993.179 49.0284 -896.937 -0.817486 -785.512 17.2257C-729.94 26.2357 -679.545 47.8178 -629.476 71.0295C-535.029 114.636 -442.285 165.204 -320.156 161.479C-182.217 157.265 -77.9989 45.2335 94.4545 49.0517C306.972 53.7779 438.079 237.539 585.136 279.283C606.777 285.43 628.512 288.619 650.713 287.921C793.106 283.428 889.722 198.24 981.464 129.303C1069.24 63.3699 1148.74 9.49626 1257.86 27.6792C1277.51 30.9619 1296.75 36.5495 1315.76 43.3244C1457.2 93.7058 1578.32 217.75 1735.78 159.593C1787.25 140.595 1824.45 98.8277 1879.85 98.2224C1918.85 97.7801 1952.52 118.175 1986.85 138.686C2008.96 151.817 2031.06 164.715 2054.66 172.747C2111.75 192.327 2178.1 181.291 2235.95 161.316C2300.13 139.151 2338.56 99.5495 2403.91 89.5849M-1693.88 78.7124C-1577.82 57.4563 -1488.53 193.91 -1370.29 201.313C-1265.4 207.646 -1174.31 153.865 -1082.96 102.041C-985.927 46.9331 -889.054 -7.70884 -776.021 10.7302C-719.726 19.9031 -668.981 42.6725 -618.609 67.6071C-523.766 114.45 -430.625 170.069 -306.071 168.37C-166.639 166.088 -63.1205 49.9597 113.111 51.636C327.331 54.3133 458.181 236.282 602.323 280.89C623.825 287.548 645.489 291.25 667.667 290.854C811.273 288.782 906.793 204.247 996.109 130.91C1082.25 60.1803 1160.73 -2.07469 1270.1 15.9685C1289.71 19.2047 1308.83 25.0484 1327.68 32.3588C1467.9 86.7912 1589.12 231.579 1746.35 167.415C1797.42 146.578 1833.82 99.4098 1889.62 96.4763C1928.92 94.4042 1962.5 114.683 1996.43 135.892C2018.19 149.465 2039.97 163.248 2063.34 172.118C2120.01 193.677 2186.66 184.364 2243.88 162.945C2304.21 140.362 2341.87 89.3288 2403.91 78.7124M-1693.88 67.8632C-1576.28 45.2801 -1486.82 193.491 -1366.82 204.27C-1146.42 223.082 -989.145 -30.8973 -766.53 4.23462C-602.612 32.126 -486.523 175.238 -291.985 175.238C-151.061 175.238 -48.2188 54.1736 131.79 54.1736C380.361 54.1736 515.782 293.765 684.644 293.765C970.061 293.765 1059.7 -30.8973 1282.39 4.23462C1447.12 32.126 1577.18 250.903 1756.93 175.238C1807.12 151.444 1843.24 99.9918 1899.42 94.7535C1964.3 88.7002 2012.69 146.648 2072.01 171.49C2128.26 195.051 2195.28 187.554 2251.81 164.598C2308.34 141.643 2345.16 79.1548 2403.88 67.8632" stroke="#00AD00" stroke-width="0.49" stroke-miterlimit="10"/>
</svg>
