<svg width="158" height="95" viewBox="0 0 158 95" fill="none" xmlns="http://www.w3.org/2000/svg">
<path d="M-228.416 127.373C-206.988 123.198 -191.994 97.3051 -168.07 92.6565C-150.918 89.3243 -132.884 92.4052 -115.954 88.0813C-89.5883 81.3504 -67.997 57.2766 -40.8178 58.5511C-15.687 59.7273 6.65971 82.8858 31.1667 77.1913C50.8776 72.6084 63.2337 50.6602 83.1455 47.0606C99.9833 44.0164 117.341 55.1724 133.89 50.8232C154.123 45.5047 165.387 18.974 186.305 18.5255C199.46 18.2434 210.739 28.9366 223.879 29.6272C236.102 30.2666 246.11 20.3208 257.935 17.1624C273.65 12.9664 282.944 27.7505 297.69 24.8777M-228.688 125.975C-216.788 123.479 -206.664 116.183 -195.953 108.316C-187.048 101.811 -177.971 95.1915 -167.177 92.6597C-155.87 90.0031 -144.206 89.9745 -132.471 89.391C-126.443 89.0962 -120.485 88.6222 -114.648 87.3669C-103.275 84.9057 -92.7022 79.5797 -82.0499 73.8498C-67.9185 66.2456 -54.3914 57.948 -38.362 58.4113C-13.0764 59.1379 9.2057 82.1722 33.4064 76.9632C36.409 76.3285 39.2486 75.2874 41.9754 73.9544C57.2778 66.5229 68.6495 50.5281 85.0643 46.8919C98.8548 43.8385 112.927 50.1092 126.988 50.0237C129.723 50.0098 132.444 49.747 135.144 49.1089C155.325 44.3382 167.068 20.4211 187.853 19.2618C195.492 18.8518 202.37 21.8377 209.573 24.6918C214.601 26.6832 219.669 28.6419 225.039 29.0252C228.669 29.2814 232.116 28.6441 235.478 27.5135C243.359 24.8781 250.799 19.4755 258.993 17.1707C274.16 12.9044 283.11 26.3509 297.414 23.4771M-228.961 124.576C-216.896 121.871 -206.471 116.058 -195.433 108.606C-186.229 102.394 -177.051 95.6214 -166.281 92.6654C-154.992 89.5522 -143.365 88.9001 -131.414 88.3213C-125.292 88.0359 -119.257 87.6993 -113.335 86.6574C-101.83 84.6024 -91.0621 79.9749 -80.0658 74.3831C-65.6744 67.0608 -52.3695 58.0855 -35.8966 58.2729C-10.4599 58.5629 11.7134 81.2144 35.6557 76.7363C38.6543 76.177 41.4907 75.1831 44.2285 73.907C59.719 66.6751 71.0362 50.9426 86.9908 46.731C100.489 43.1658 114.183 48.3261 128.272 48.2103C130.997 48.1922 133.709 47.9652 136.405 47.3995C156.532 43.18 168.755 21.873 189.408 20.003C196.934 19.3477 203.591 21.6775 210.787 24.2223C215.813 25.9965 220.866 27.9426 226.203 28.4256C229.801 28.7438 233.226 28.2321 236.579 27.2151C244.452 24.8452 251.945 19.5817 260.058 17.1808C274.678 12.8531 283.283 24.9561 297.148 22.0778M-229.233 123.178C-217.004 120.264 -206.269 115.948 -194.913 108.897C-185.399 102.988 -176.134 96.0549 -165.389 92.6686C-154.113 89.0984 -142.527 87.8262 -130.361 87.2491C-124.142 86.9697 -118.036 86.7745 -112.028 85.946C-100.391 84.2973 -89.4285 80.3683 -78.0914 74.9152C-63.4405 67.8717 -50.3596 58.2254 -33.4438 58.1337C-7.85418 57.9962 14.2851 80.6326 37.8959 76.5112C40.8861 75.9877 43.7279 75.086 46.4721 73.8583C62.1619 66.8517 73.4181 51.3487 88.9041 46.5665C102.115 42.4854 115.425 46.5365 129.544 46.3962C132.262 46.3763 134.965 46.1822 137.652 45.693C157.721 42.0254 170.424 23.2788 190.951 20.7465C198.365 19.8305 204.801 21.5226 211.989 23.7581C217.013 25.3151 222.049 27.2491 227.352 27.8319C230.916 28.2128 234.321 27.8259 237.666 26.9196C245.534 24.8147 253.077 19.6968 261.104 17.1944C275.179 12.8083 283.437 23.5618 296.86 20.6825M-229.505 121.783C-217.111 118.66 -206.059 115.842 -194.393 109.19C-184.568 103.587 -175.214 96.4878 -164.492 92.6743C-153.232 88.6469 -141.686 86.7518 -129.306 86.1764C-122.991 85.9034 -116.806 85.8606 -110.72 85.2311C-98.9482 84.0161 -87.7967 80.7527 -76.1109 75.4461C-61.2048 68.6761 -48.3425 58.37 -30.9814 57.9959C-5.24376 57.4379 16.8354 79.8933 40.1428 76.2879C43.1266 75.8277 45.9711 74.9877 48.7252 73.8109C64.6143 67.0297 75.8089 51.753 90.827 46.4032C103.751 41.8032 116.678 44.751 130.825 44.5804C133.533 44.5562 136.231 44.3974 138.909 43.9812C158.924 40.8649 172.105 24.7259 192.502 21.4823C199.803 20.321 206.021 21.3564 213.203 23.2855C218.225 24.6284 223.242 26.5504 228.515 27.2323C232.045 27.6758 235.431 27.4139 238.767 26.6211C246.632 24.7843 254.227 19.8114 262.17 17.2075C275.697 12.7726 283.61 22.17 296.594 19.2861M-229.777 120.385C-217.219 117.052 -205.853 115.736 -193.874 109.48C-183.733 104.186 -174.293 96.9207 -163.597 92.677C-152.351 88.1895 -140.844 85.6493 -128.247 85.1031C-121.837 84.8239 -115.579 84.9347 -109.407 84.5186C-97.5026 83.7158 -86.1649 81.1371 -74.1274 75.9764C-58.9696 69.4775 -46.3243 58.5206 -28.5167 57.8544C-2.62858 56.888 19.3887 79.1535 42.3944 76.0574C45.3744 75.6571 48.2192 74.8822 50.9808 73.7599C67.0721 67.2034 78.2005 52.1448 92.7559 46.2387C105.39 41.1108 117.936 42.9614 132.112 42.7664C134.81 42.738 137.499 42.615 140.174 42.2742C160.135 39.7092 173.778 26.0874 194.061 22.2258C201.256 20.8553 207.246 21.1986 214.42 22.8184C219.438 23.9447 224.439 25.8636 229.682 26.6351C233.18 27.1503 236.543 26.9953 239.871 26.3222C247.728 24.7323 255.378 19.926 263.235 17.2176C276.217 12.7429 283.782 20.7723 296.328 17.8867M-230.05 118.987C-217.327 115.445 -205.643 115.633 -193.354 109.771C-182.898 104.785 -173.377 97.3512 -162.704 92.6832C-151.473 87.7386 -140.008 84.5695 -127.194 84.0309C-120.69 83.7582 -114.354 84.0124 -108.101 83.8072C-96.0666 83.4143 -84.5396 81.5197 -72.153 76.5085C-56.7476 70.2752 -44.3144 58.676 -26.0639 57.7153C-0.0272088 56.347 21.9348 78.4243 44.6317 75.8329C47.6047 75.4929 50.4534 74.7857 53.2243 73.7113C69.5191 67.3855 80.5819 52.5323 94.6693 46.0741C107.017 40.4148 119.178 41.1407 133.384 40.9494C136.074 40.9132 138.756 40.832 141.422 40.5611C161.331 38.5438 175.48 27.6794 195.606 22.9628C202.685 21.332 208.46 21.0335 215.624 22.3476C220.64 23.2568 225.623 25.1636 230.833 26.0348C234.296 26.6126 237.64 26.5826 240.959 26.0231C248.815 24.6977 256.511 20.0471 264.287 17.23C276.729 12.7239 283.943 19.3798 296.046 16.4903M-230.322 117.588C-217.435 113.838 -205.43 115.529 -192.834 110.061C-182.063 105.386 -172.456 97.7841 -161.808 92.6859C-150.595 87.2847 -139.165 83.4885 -126.135 82.9576C-119.537 82.6884 -113.126 83.0864 -106.785 83.0941C-94.6216 83.111 -82.9059 81.8976 -70.1665 77.0383C-54.5112 71.067 -42.2944 58.8356 -23.5955 57.5762C2.5879 55.8127 24.494 77.6989 46.8869 75.6048C49.8567 75.3277 52.7056 74.6856 55.4829 73.6597C71.9847 67.5671 82.9765 52.908 96.6011 45.9091C108.66 39.7123 120.439 39.3475 134.674 39.1348C137.354 39.0944 140.027 39.049 142.69 38.8535C162.545 37.3875 177.177 29.1325 197.168 23.7028C204.134 21.8297 209.687 20.8751 216.847 21.8793C221.862 22.5743 226.827 24.4691 232.007 25.4365C235.438 26.0793 238.763 26.1713 242.069 25.7229C249.92 24.6595 257.668 20.1666 265.358 17.2389C277.257 12.708 284.121 17.9808 295.785 15.0867M-230.595 116.19C-217.543 112.23 -205.22 115.429 -192.315 110.351C-181.225 105.991 -171.537 98.214 -160.913 92.6885C-149.714 86.8303 -138.325 82.4052 -125.08 81.8819C-118.384 81.6185 -111.902 82.1581 -105.476 82.3792C-93.1807 82.8023 -81.2794 82.2706 -68.1866 77.5662C-52.285 71.8546 -40.2774 58.9958 -21.1373 57.4329C5.19459 55.2831 27.0473 76.9746 49.1296 75.3761C52.0961 75.1617 54.9453 74.5849 57.7319 73.6069C74.4377 67.748 85.3579 53.28 98.5199 45.7404C110.287 39.0008 121.689 37.5501 135.951 37.3136C138.621 37.2689 141.288 37.2589 143.943 37.1363C163.744 36.2216 178.857 30.5766 198.718 24.4355C205.574 22.3167 210.907 20.7059 218.056 21.4014C223.069 21.8792 228.016 23.7619 233.166 24.8315C236.563 25.537 239.869 25.7538 243.166 25.4191C251.013 24.6237 258.814 20.2883 266.416 17.2442C277.777 12.6939 284.289 16.5806 295.51 13.6861M-230.867 114.792C-217.648 110.622 -205.009 115.332 -191.795 110.645C-180.388 106.598 -170.619 98.6505 -160.019 92.6978C-148.834 86.3824 -137.488 81.3283 -124.026 80.8157C-117.237 80.5558 -110.677 81.2358 -104.169 81.6738C-91.7435 82.5068 -79.6577 82.6508 -66.2104 78.1073C-50.0635 72.6494 -38.2659 59.1758 -18.6797 57.3022C7.8018 54.772 29.598 76.2694 51.374 75.1564C54.3342 75.0054 57.1867 74.4932 59.9802 73.5667C76.8936 67.9439 87.737 53.6555 100.442 45.5866C111.918 38.2976 122.939 35.7652 137.231 35.5104C139.894 35.4638 142.55 35.4872 145.198 35.4406C164.945 35.0771 180.538 32.0423 200.267 25.1904C207.01 22.8293 212.122 20.5624 219.267 20.948C224.278 21.2086 229.207 23.0793 234.323 24.2486C237.686 25.0167 240.972 25.3585 244.26 25.1344C252.103 24.604 259.958 20.4352 267.475 17.271C278.299 12.7132 284.455 15.1996 295.237 12.3035M-231.139 113.397C-217.756 109.015 -204.794 115.238 -191.275 110.935C-179.552 107.206 -169.699 99.0804 -159.124 92.7004C-147.953 85.928 -136.645 80.2474 -122.968 79.7394C-116.084 79.483 -109.448 80.3063 -102.857 80.9553C-90.3002 82.1945 -78.033 83.0148 -64.2281 78.6316C-47.839 73.428 -36.2477 59.3419 -16.2155 57.1577C10.4162 54.2502 32.1565 75.5565 53.6227 74.9265C56.5795 74.8383 59.4353 74.3907 62.2322 73.5133C79.3544 68.1326 90.1185 54.012 102.363 45.4173C113.542 37.5741 124.189 33.9678 138.511 33.6886C141.164 33.6378 143.814 33.6965 146.454 33.7228C166.147 33.9106 182.245 33.5463 201.817 25.9232C208.455 23.3372 213.341 20.3932 220.477 20.473C225.483 20.5201 230.4 22.3746 235.483 23.6436C238.811 24.4744 242.078 24.9411 245.357 24.8306C253.196 24.5681 261.106 20.569 268.532 17.2762C278.822 12.717 284.621 13.8 294.96 10.8969M-231.411 111.998C-217.864 107.408 -204.582 115.144 -190.755 111.225C-178.713 107.813 -168.779 99.5133 -158.228 92.7031C-147.072 85.4735 -135.806 79.164 -121.912 78.6667C-114.931 78.4161 -108.224 79.378 -101.548 80.2433C-88.8594 81.8859 -76.4077 83.3818 -62.2477 79.1625C-45.6146 74.2066 -34.2296 59.5237 -13.7567 57.0174C13.027 53.7416 34.7109 74.8538 55.8684 74.6972C58.8195 74.6754 61.6785 74.2924 64.4841 73.4599C81.8151 68.3214 92.4899 54.3642 104.288 45.2474C115.165 36.8446 125.445 32.1692 139.794 31.8692C142.437 31.8142 145.078 31.9087 147.715 32.0104C167.353 32.7465 183.951 35.0319 203.375 26.6608C209.908 23.8434 214.565 20.2294 221.693 19.9999C226.697 19.8298 231.596 21.6722 236.649 23.0404C239.946 23.9332 243.191 24.5255 246.46 24.5256C254.298 24.5306 262.264 20.7039 269.599 17.2798C279.358 12.7245 284.795 12.3956 294.696 9.49391M-231.684 110.6C-217.973 105.8 -204.37 115.053 -190.235 111.519C-177.875 108.427 -167.861 99.9498 -157.334 92.7123C-146.193 85.0257 -134.968 78.0902 -120.858 77.5975C-113.784 77.3504 -106.999 78.4556 -100.238 79.5344C-87.4174 81.5832 -74.7853 83.7494 -60.269 79.7C-43.3925 74.9887 -32.2134 59.712 -11.2968 56.8831C15.6395 53.2419 37.2645 74.1636 58.1128 74.4774C61.0612 74.5214 63.9205 74.2037 66.7319 73.4167C84.2722 68.5232 94.8559 54.7206 106.206 45.0913C116.778 36.1234 126.692 30.385 141.07 30.0606C143.706 30.0007 146.339 30.1311 148.968 30.3057C168.551 31.5931 185.658 36.5329 204.921 27.4037C211.351 24.3579 215.778 20.0739 222.901 19.5345C227.904 19.1473 232.785 20.9776 237.804 22.4485C241.067 23.404 244.293 24.1212 247.553 24.2349C255.385 24.5085 263.413 20.8592 270.653 17.3012C279.887 12.7612 284.956 11.0091 294.416 8.10344M-231.956 109.202C-218.081 104.193 -204.15 114.985 -189.716 111.809C-177.034 109.059 -166.941 100.38 -156.439 92.715C-145.315 84.5718 -134.125 77.0062 -119.8 76.5242C-112.628 76.283 -105.768 77.5136 -98.9253 78.8219C-85.9716 81.2518 -73.1582 84.1099 -58.2856 80.2303C-41.1661 75.7608 -30.1911 59.8992 -8.83443 56.7452C18.2556 52.7447 39.8218 73.4758 60.359 74.2511C63.3018 74.3615 66.1637 74.1054 68.985 73.3693C86.7323 68.7245 97.2207 55.0709 108.132 44.9274C118.391 35.3926 127.946 28.593 142.354 28.2472C144.98 28.1831 147.605 28.3523 150.229 28.5993C169.759 30.438 187.377 38.0347 206.48 28.1473C212.809 24.8725 217.006 19.9155 224.118 19.0674C229.12 18.466 233.987 20.2711 238.972 21.8513C242.205 22.8623 245.409 23.711 248.657 23.9359C256.485 24.4774 264.577 21.0146 271.721 17.3107C280.434 12.7914 285.132 9.61377 294.152 6.70349M-232.229 107.804C-218.189 102.586 -203.943 114.885 -189.196 112.099C-176.199 109.663 -166.021 100.81 -155.546 92.7183C-144.437 84.1179 -133.288 75.9264 -118.747 75.452C-111.481 75.2143 -104.544 76.5882 -97.6189 78.1105C-84.5331 80.9467 -71.54 84.4721 -56.3081 80.7618C-38.9458 76.534 -28.1743 60.0905 -6.37563 56.6049C20.8718 52.2474 42.373 72.7892 62.6053 74.0248C65.5429 74.2046 68.4075 74.0101 71.2346 73.3195C89.1923 68.9258 99.5718 55.4147 110.052 44.7647C119.992 34.6612 129.198 26.8015 143.632 26.432C146.249 26.3666 148.867 26.5681 151.484 26.888C170.959 29.278 189.096 39.5364 208.029 28.8866C214.258 25.3828 218.22 19.7535 225.326 18.599C230.325 17.7804 235.175 19.5735 240.129 21.2529C243.328 22.3265 246.511 23.3067 249.752 23.6387C257.576 24.4608 265.741 21.1795 272.777 17.3225C280.97 12.833 285.295 8.21773 293.877 5.30586M-232.501 106.406C-218.297 100.978 -203.732 114.785 -188.676 112.39C-175.367 110.266 -165.101 101.243 -154.65 92.7239C-143.556 83.6635 -132.448 74.846 -117.691 74.3793C-110.331 74.148 -103.32 75.6629 -96.31 77.3956C-83.0917 80.641 -69.9176 84.8242 -54.3312 81.2904C-36.7272 77.2982 -26.1538 60.2842 -3.91742 56.4617C23.4855 51.7538 44.9219 72.1062 64.848 73.7961C67.7804 74.0452 70.6508 73.9118 73.4836 73.2666C91.6524 69.1271 101.922 55.7554 111.974 44.5954C121.591 33.9208 130.448 25.0041 144.913 24.6132C147.519 24.5436 150.129 24.7809 152.739 25.1768C172.16 28.1181 190.818 41.0405 209.577 29.623C215.709 25.8925 219.438 19.5909 226.536 18.1271C231.531 17.0949 236.366 18.8754 241.287 20.6545C244.454 21.7901 247.615 22.8958 250.847 23.3385C258.667 24.4285 266.908 21.3498 273.836 17.3338C281.52 12.8782 285.462 6.82411 293.601 3.90825M-232.773 105.007C-218.405 99.3708 -203.522 114.685 -188.157 112.68C-174.531 110.871 -164.184 101.676 -153.755 92.7266C-142.677 83.2126 -131.609 73.7626 -116.635 73.3066C-109.178 73.0781 -102.092 74.737 -95.0005 76.6836C-81.6503 80.3353 -68.2987 85.1583 -52.3502 81.8243C-34.5061 78.0433 -24.1252 60.5198 -1.45746 56.3273C26.1126 51.3134 47.4712 71.4417 67.0948 73.5728C70.0221 73.8913 72.8963 73.8254 75.7337 73.2198C94.1189 69.3614 104.264 56.1009 113.894 44.4357C123.182 33.1851 131.697 23.2163 146.191 22.8009C148.79 22.7265 151.392 22.9997 153.994 23.4685C173.361 26.9611 192.551 42.5489 211.129 30.3647C217.164 26.4076 220.656 19.4312 227.747 17.6581C232.74 16.4088 237.56 18.1766 242.447 20.0554C245.581 21.2567 248.722 22.4844 251.945 23.0406C259.76 24.3957 268.084 21.531 274.895 17.345C282.074 12.9318 285.631 5.42691 293.329 2.51004M-233.045 103.612C-218.512 97.7664 -203.314 114.589 -187.637 112.973C-158.869 109.88 -145.04 73.2841 -115.579 72.2338C-93.8356 71.7206 -75.3458 87.2211 -50.3697 82.3552C-32.2769 78.8303 -22.1065 60.689 1.00432 56.1865C32.9175 49.969 56.3066 77.3932 77.9863 73.1694C114.63 66.0303 118.005 22.0366 147.475 20.9845C169.323 20.4509 191.502 45.3326 212.684 31.1059C218.531 26.7907 221.88 19.2704 228.961 17.1916C237.139 14.7904 244.804 21.0321 253.043 22.7428C260.855 24.3658 269.272 21.7253 275.954 17.3593C282.636 12.9933 285.798 4.03628 293.054 1.11541" stroke="#00AD00" stroke-width="0.5" stroke-miterlimit="10"/>
</svg>
