<?xml version="1.0" encoding="UTF-8"?><svg id="Layer_2" xmlns="http://www.w3.org/2000/svg" viewBox="0 0 1757.27 126.28"><defs><style>.cls-1{fill:none;stroke:#00ad00;stroke-miterlimit:10;stroke-width:.49px;}</style></defs><g id="Layer_1-2"><path class="cls-1" d="M.05,108.37c71.57,0,136.05-73.92,215.95-73.88,57.28,.03,113.38,21.25,170.57,17.95,89.06-5.13,173.63-69.06,260.29-47.92,80.13,19.54,137.52,108.07,219.95,105.11,66.3-2.39,119.82-65.27,186.15-64.37,56.09,.76,104.95,47.54,160.93,43.92,68.44-4.43,121.32-82.74,188.91-71.07,42.51,7.34,72.1,48.82,113.95,59.28,38.93,9.72,77.37-16.01,117.4-18.76,53.2-3.65,73.84,49.75,123.09,49.75M.05,103.7c39.86-.57,77.01-17.7,116.41-36.3,32.73-15.35,66.09-30.96,102.41-32.34,38.05-1.46,75.6,5.76,113.73,11.24,19.58,2.83,39.05,5.04,58.62,4.66,38.14-.79,75.5-11.3,113.37-23.06,50.24-15.61,98.97-33.83,150.26-22.29,80.91,18.19,138.17,106.28,219.31,104.69,10.06-.16,19.85-1.73,29.46-4.31,53.9-14.32,100.52-58.66,155.62-60.07,46.29-1.18,87.64,27.82,132.94,36.36,8.81,1.67,17.73,2.53,26.82,2.17,67.93-2.7,120.71-72.3,188.32-63,24.84,3.47,45.1,17.39,66.49,31.09,14.93,9.56,30.01,19.04,47.05,23.64,11.52,3.1,23.01,3.21,34.54,1.68,27.01-3.54,54.34-16.26,82.15-18.54,51.48-4.22,71.85,44.66,119.68,44.38M.05,99.03c40.52-1.14,77.71-13.31,117.9-30.37,33.51-14.22,67.29-30.26,103.8-33.02,38.28-2.94,76.1,2.25,114.92,7.88,19.88,2.92,39.51,5.62,59.22,5.98,38.31,.6,75.86-7.54,114.75-18.64,50.9-14.54,99.34-35.08,152.23-24.15,81.67,16.88,138.82,103.67,218.67,104.27,10,.08,19.75-1.34,29.36-3.73,54.38-13.56,100.66-57.09,154.64-60.64,45.67-3.01,86.5,22.18,131.91,30.64,8.78,1.65,17.65,2.62,26.68,2.49,67.41-.96,120.1-61.86,187.73-54.93,24.63,2.61,44.59,14.28,66.15,26.98,15.06,8.86,30.1,18.29,46.97,23.19,11.38,3.28,22.72,3.78,34.15,2.61,26.82-2.69,54.23-14.93,81.84-17.57,49.76-4.76,69.86,39.58,116.28,39.01M.05,94.36c41.18-1.71,78.43-8.87,119.39-24.44,34.32-13.05,68.48-29.55,105.18-33.71,38.52-4.42,76.6-1.25,116.11,4.52,20.19,3,39.96,6.2,59.81,7.3,38.48,1.99,76.22-3.78,116.12-14.22,51.56-13.48,99.7-36.32,154.19-26.01,82.43,15.6,139.48,102.32,218.04,103.86,9.95,.19,19.66-.93,29.26-3.16,54.88-12.71,100.82-55.54,153.65-61.22,45.07-4.85,85.36,16.53,130.88,24.93,8.76,1.64,17.58,2.71,26.53,2.82,66.88,.78,119.51-51.58,187.15-46.86,24.43,1.7,44.08,11.18,65.81,22.88,15.19,8.16,30.18,17.54,46.88,22.74,11.23,3.46,22.43,4.35,33.76,3.53,26.64-1.84,54.12-13.58,81.52-16.6,48.04-5.29,67.87,34.49,112.87,33.64M.05,89.7c41.84-2.28,79.17-4.42,120.88-18.51,35.13-11.87,69.68-28.85,106.57-34.4,38.76-5.9,77.1-4.76,117.3,1.15,20.49,3.08,40.42,6.82,60.4,8.61,38.64,3.47,76.57-.04,117.5-9.79,52.21-12.44,100.06-37.54,156.16-27.86,83.17,14.34,140.14,100.44,217.4,103.45,9.89,.39,19.57-.53,29.17-2.59,55.38-11.86,100.98-54,152.66-61.8,44.47-6.7,84.22,10.89,129.85,19.21,8.73,1.62,17.51,2.8,26.39,3.14,66.36,2.52,118.89-41.15,186.56-38.8,24.22,.84,43.58,8.07,65.48,18.78,15.32,7.47,30.26,16.8,46.8,22.3,11.08,3.64,22.14,4.92,33.37,4.46,26.46-.98,54.02-12.22,81.21-15.62,46.31-5.79,65.88,29.41,109.47,28.27M.05,85.03c42.5-2.85,79.9,.04,122.37-12.58,35.95-10.68,70.88-28.14,107.96-35.09,39-7.39,77.62-8.35,118.5-2.21,20.8,3.12,40.87,7.4,60.99,9.93,38.81,4.88,76.91,3.69,118.88-5.37,52.85-11.41,100.41-38.74,158.13-29.72,83.91,13.12,140.8,98.57,216.77,103.03,9.84,.58,19.48-.13,29.07-2.01,55.89-11.01,101.14-52.49,151.68-62.37,43.87-8.58,83.08,5.24,128.82,13.5,8.7,1.6,17.43,2.89,26.25,3.47,65.84,4.26,118.28-31.02,185.97-30.73,24.01,.1,43.07,4.96,65.14,14.67,15.44,6.77,30.33,16.08,46.72,21.85,10.93,3.85,21.85,5.46,32.98,5.38,26.28-.19,53.91-10.86,80.89-14.65,44.58-6.26,63.89,24.32,106.07,22.9M.05,80.36c43.16-3.42,80.64,4.51,123.86-6.65,36.77-9.49,72.07-27.44,109.34-35.77,39.24-8.87,78.12-11.88,119.69-5.58,21.1,3.2,41.33,7.99,61.58,11.25,38.97,6.28,77.25,7.41,120.25-.95,53.48-10.4,100.76-39.93,160.09-31.58,84.64,11.92,141.47,96.73,216.13,102.62,9.78,.77,19.39,.28,28.98-1.44,56.4-10.14,101.31-51,150.69-62.95,43.28-10.47,81.96-.51,127.79,7.78,8.68,1.57,17.36,2.99,26.11,3.79,65.33,5.99,117.67-20.1,185.39-22.66,23.8-.81,42.57,1.85,64.8,10.57,15.57,6.07,30.41,15.33,46.63,21.4,10.78,4.03,21.56,6.03,32.59,6.31,26.11,.66,53.79-9.48,80.58-13.67,42.86-6.7,61.9,19.24,102.66,17.53M.05,75.69c43.82-3.99,81.39,8.98,125.35-.72,37.59-8.29,73.27-26.73,110.73-36.46,39.47-10.35,78.63-15.4,120.89-8.94,21.4,3.27,41.78,8.57,62.18,12.57,39.13,7.68,77.59,11.12,121.63,3.47,54.12-9.4,101.1-41.1,162.06-33.43,85.36,10.74,142.13,94.9,215.5,102.2,9.73,.97,19.3,.69,28.88-.87,56.92-9.26,101.48-49.54,149.71-63.52,42.69-12.38,80.82-6.17,126.76,2.07,8.65,1.55,17.28,3.08,25.97,4.12,64.81,7.73,117.07-9.66,184.8-14.6,23.59-1.66,42.06-1.25,64.47,6.47,15.7,5.38,30.49,14.59,46.55,20.95,10.64,4.22,21.28,6.6,32.2,7.23,25.93,1.5,53.68-8.1,80.26-12.7,41.13-7.12,59.91,14.15,99.26,12.15M.05,71.02c44.48-4.56,82.13,13.46,126.84,5.21,38.42-7.08,74.47-26.03,112.12-37.15,39.71-11.83,79.13-18.93,122.08-12.31,21.71,3.35,42.23,9.15,62.77,13.89,39.3,9.07,77.93,14.82,123.01,7.89,54.75-8.41,101.45-42.26,164.02-35.29,86.08,9.59,142.8,93.09,214.86,101.79,9.68,1.17,19.21,1.1,28.79-.3,57.43-8.38,101.64-48.09,148.72-64.1,42.09-14.31,79.69-11.83,125.73-3.65,8.62,1.53,17.21,3.17,25.83,4.44,64.29,9.47,116.46,.78,184.22-6.53,23.39-2.52,41.56-4.36,64.13,2.36,15.83,4.68,30.57,13.84,46.47,20.51,10.49,4.4,20.99,7.17,31.81,8.16,25.75,2.36,53.57-6.7,79.94-11.73,39.41-7.52,57.93,9.07,95.85,6.79M.05,66.35c45.15-5.13,82.87,17.95,128.33,11.15,39.24-5.87,75.66-25.32,113.5-37.83,39.95-13.31,79.63-22.46,123.27-15.67,22.01,3.42,42.69,9.72,63.36,15.21,39.46,10.47,78.26,18.51,124.38,12.32,55.38-7.44,101.79-43.4,165.99-37.15,86.8,8.46,143.46,91.3,214.23,101.37,9.62,1.37,19.12,1.51,28.69,.28,57.95-7.49,101.8-46.67,147.74-64.67,41.5-16.26,78.55-17.5,124.7-9.36,8.6,1.52,17.13,3.26,25.68,4.77,63.77,11.21,115.85,11.22,183.63,1.54,23.18-3.37,41.05-7.46,63.8-1.74,15.96,3.98,30.65,13.09,46.38,20.06,10.34,4.58,20.7,7.74,31.42,9.08,25.57,3.21,53.46-5.28,79.63-10.75,37.69-7.88,55.94,3.98,92.45,1.42M.05,61.69c45.81-5.71,83.62,22.44,129.82,17.07,40.06-4.65,76.86-24.62,114.89-38.52,40.19-14.79,80.14-25.98,124.47-19.04,22.31,3.49,43.15,10.3,63.95,16.52,39.63,11.86,78.59,22.19,125.76,16.74,56-6.47,102.13-44.53,167.96-39,87.52,7.34,144.12,89.53,213.59,100.96,9.57,1.57,19.04,1.92,28.59,.85,58.47-6.58,101.96-45.27,146.75-65.25,40.89-18.23,77.41-23.16,123.67-15.08,8.57,1.5,17.06,3.35,25.54,5.09,63.25,12.95,115.28,21.87,183.04,9.61,22.98-4.16,40.55-10.57,63.46-5.84,16.08,3.29,30.74,12.34,46.3,19.61,10.19,4.76,20.41,8.31,31.03,10.01,25.39,4.07,53.35-3.84,79.31-9.78,35.97-8.22,53.95-1.1,89.04-3.96M.05,57.02c46.47-6.28,84.36,26.94,131.31,23,40.89-3.43,78.06-23.91,116.28-39.21,40.43-16.27,80.64-29.51,125.66-22.4,22.62,3.57,43.6,10.87,64.54,17.84,39.8,13.24,78.93,25.86,127.14,21.16,56.63-5.52,102.47-45.63,169.92-40.86,88.24,6.25,144.78,87.78,212.96,100.54,9.51,1.78,18.95,2.34,28.5,1.42,58.99-5.67,102.09-43.89,145.77-65.83,40.27-20.22,76.28-28.82,122.64-20.79,8.54,1.48,16.98,3.44,25.4,5.42,62.73,14.68,114.71,32.44,182.46,17.68,22.79-4.97,40.04-13.68,63.12-9.95,16.21,2.59,30.82,11.59,46.22,19.16,10.05,4.94,20.12,8.88,30.64,10.93,25.22,4.93,53.25-2.39,79-8.81,34.26-8.54,51.96-6.19,85.64-9.32M.05,52.35c47.13-6.85,85.1,31.45,132.8,28.94,41.71-2.2,79.25-23.2,117.66-39.89,40.67-17.75,81.14-33.03,126.85-25.77,22.92,3.64,44.06,11.45,65.14,19.16,39.97,14.63,79.26,29.52,128.51,25.59,57.26-4.58,102.81-46.73,171.89-42.72,88.96,5.17,145.43,86.05,212.32,100.13,9.46,1.99,18.86,2.76,28.4,1.99,59.51-4.75,102.22-42.53,144.78-66.4,39.64-22.23,75.14-34.48,121.61-26.51,8.52,1.46,16.91,3.53,25.26,5.74,62.21,16.42,114.16,43.04,181.87,25.74,22.6-5.77,39.53-16.78,62.79-14.05,16.34,1.89,30.9,10.84,46.13,18.72,9.9,5.12,19.83,9.45,30.25,11.86,25.03,5.79,53.15-.92,78.68-7.83,32.56-8.82,49.97-11.28,82.23-14.7M.05,47.68c47.79-7.42,85.85,36.04,134.29,34.87,42.53-.9,80.45-22.5,119.05-40.58,40.9-19.23,81.65-36.56,128.05-29.13,23.23,3.72,44.53,11.98,65.73,20.48,40.16,15.94,79.6,33.17,129.89,30.01,57.89-3.65,103.15-47.81,173.85-44.57,89.68,4.11,146.08,84.34,211.68,99.71,9.4,2.2,18.77,3.17,28.31,2.57,60.02-3.82,102.33-41.18,143.8-66.98,38.99-24.25,74-40.14,120.58-32.22,8.49,1.44,16.83,3.63,25.12,6.07,61.69,18.16,113.62,53.65,181.29,33.81,22.42-6.57,39.03-19.89,62.45-18.16,16.47,1.2,31,10.06,46.05,18.27,9.77,5.28,19.55,10.02,29.86,12.78,24.85,6.65,53.06,.58,78.37-6.86,30.87-9.08,47.98-16.36,78.83-20.07M.05,43.01c48.45-7.99,86.58,40.52,135.78,40.8,43.35,.31,81.65-21.8,120.43-41.27C297.4,21.83,338.41,2.46,385.5,10.05c23.53,3.79,44.99,12.56,66.32,21.8,40.33,17.33,79.93,36.82,131.27,34.43,58.52-2.72,103.49-48.88,175.82-46.43,90.41,3.06,146.72,82.64,211.05,99.3,9.34,2.42,18.68,3.59,28.21,3.14,60.54-2.88,102.41-39.85,142.81-67.55,38.32-26.28,72.87-45.8,119.55-37.94,8.46,1.43,16.76,3.72,24.98,6.39,61.17,19.9,113.1,64.28,180.7,41.88,22.24-7.37,38.52-23,62.11-22.26,16.6,.5,31.08,9.31,45.97,17.82,9.62,5.46,19.25,10.61,29.47,13.71,24.66,7.55,52.99,2.11,78.05-5.89,29.18-9.31,45.99-21.45,75.43-25.44M.05,38.34c49.11-8.56,87.32,45,137.27,46.73,44.16,1.51,82.85-21.09,121.82-41.95C300.52,20.92,341.79-.49,389.57,7.26c23.83,3.87,45.44,13.14,66.91,23.11,40.5,18.73,80.27,40.45,132.64,38.85,59.15-1.81,103.84-49.93,177.79-48.29,91.13,2.03,147.35,80.96,210.41,98.89,9.28,2.64,18.6,4.01,28.12,3.71,61.06-1.93,102.49-38.52,141.83-68.13,37.64-28.32,71.73-51.46,118.52-43.65,8.43,1.41,16.68,3.81,24.83,6.72,60.65,21.64,112.59,74.92,180.11,49.94,22.07-8.16,38.02-26.1,61.78-26.36,16.72-.19,31.16,8.57,45.88,17.38,9.48,5.64,18.96,11.18,29.08,14.63,24.48,8.41,52.93,3.67,77.74-4.91,27.52-9.52,44-26.53,72.02-30.81M.05,33.67c49.77-9.13,88.06,49.48,138.76,52.66,44.98,2.72,84.04-20.38,123.21-42.64C303.63,20.02,345.17-3.45,393.64,4.47c24.14,3.94,45.9,13.72,67.5,24.43,40.67,20.12,80.61,44.01,134.02,43.28,59.79-.98,104.18-50.86,179.75-50.14,91.86,1.15,147.97,79.31,209.78,98.47,9.22,2.86,18.51,4.45,28.02,4.28,61.58-.89,102.54-37.2,140.84-68.7,36.94-30.38,70.59-57.12,117.49-49.37,8.41,1.39,16.61,3.9,24.69,7.04,60.13,23.38,112.11,85.57,179.53,58.01,21.9-8.95,37.51-29.21,61.44-30.47,16.85-.89,31.25,7.82,45.8,16.93,9.33,5.83,18.67,11.75,28.69,15.56,24.3,9.26,52.88,5.26,77.42-3.94,25.87-9.7,42.02-31.62,68.62-36.18M.05,29.01c50.43-9.7,88.79,53.96,140.25,58.59C234.81,95.68,302.25-13.41,397.71,1.68c70.29,11.98,120.07,73.45,203.49,73.45,60.43,0,104.53-52,181.72-52,106.59,0,164.66,102.91,237.07,102.91,122.39,0,160.83-139.45,256.32-124.36,70.64,11.98,126.41,105.95,203.49,73.45,21.52-10.22,37.01-32.32,61.1-34.57,27.82-2.6,48.57,22.29,74.01,32.96,24.12,10.12,52.86,6.9,77.1-2.96,24.24-9.86,40.03-36.7,65.21-41.55"/></g></svg>